<svg width="107" height="122" viewBox="0 0 107 122" fill="none" xmlns="http://www.w3.org/2000/svg">
<rect x="13.5557" y="56.7637" width="93.1944" height="65.2361" rx="10" fill="#2FC3C5" fill-opacity="0.1"/>
<path d="M74.4617 80.6294C76.895 80.6294 78.8677 78.6568 78.8677 76.2234C78.8677 73.79 76.895 71.8174 74.4617 71.8174C72.0283 71.8174 70.0557 73.79 70.0557 76.2234C70.0557 78.6568 72.0283 80.6294 74.4617 80.6294Z" fill="#2FC3C5"/>
<path d="M57.719 80.6294C60.1524 80.6294 62.125 78.6568 62.125 76.2234C62.125 73.79 60.1524 71.8174 57.719 71.8174C55.2856 71.8174 53.313 73.79 53.313 76.2234C53.313 78.6568 55.2856 80.6294 57.719 80.6294Z" fill="#2FC3C5"/>
<path d="M24.6731 80.6294C27.1065 80.6294 29.0791 78.6568 29.0791 76.2234C29.0791 73.79 27.1065 71.8174 24.6731 71.8174C22.2397 71.8174 20.2671 73.79 20.2671 76.2234C20.2671 78.6568 22.2397 80.6294 24.6731 80.6294Z" fill="#2FC3C5"/>
<path d="M41.1956 80.6294C43.6289 80.6294 45.6016 78.6568 45.6016 76.2234C45.6016 73.79 43.6289 71.8174 41.1956 71.8174C38.7622 71.8174 36.7896 73.79 36.7896 76.2234C36.7896 78.6568 38.7622 80.6294 41.1956 80.6294Z" fill="#2FC3C5"/>
<path fill-rule="evenodd" clip-rule="evenodd" d="M17.624 103.982H46.2633H52.4315H81.0707C85.9297 103.982 89.8828 100.029 89.8828 95.1698V67.8931C89.8826 67.8796 89.8826 67.8661 89.8826 67.8525V59.0405C89.8826 54.7889 86.856 51.2309 82.8442 50.4079C82.2712 50.2903 81.678 50.2285 81.0707 50.2285C81.0707 50.2285 81.0706 50.2285 81.0706 50.2285H17.6242C12.7653 50.2285 8.8122 54.1816 8.8122 59.0405V67.8525C8.8122 67.8661 8.81214 67.8796 8.81202 67.893V95.1698C8.81202 100.029 12.7651 103.982 17.624 103.982ZM17.6242 41.4165H22.9031V25.8778C22.9031 11.6087 34.7623 0 49.3391 0C49.3419 0 49.3446 4.12549e-07 49.3474 1.23759e-06C49.3501 4.12549e-07 49.3529 0 49.3556 0C63.9325 0 75.7917 11.6087 75.7917 25.8778V41.4165H81.0706H81.0707C81.1466 41.4165 81.2223 41.417 81.298 41.4179C82.4334 41.4324 83.5434 41.5547 84.6179 41.7752C92.6415 43.4213 98.6948 50.5373 98.6948 59.0405V95.1698C98.6948 104.888 90.7886 112.794 81.0707 112.794H52.4315H46.2633H17.624C7.90614 112.794 0 104.888 0 95.1698V59.0405C0 49.3226 7.90614 41.4165 17.624 41.4165H17.6242ZM31.7316 41.4165V25.8778C31.7316 16.4703 39.6333 8.81635 49.3474 8.81202C59.0615 8.81635 66.9632 16.4703 66.9632 25.8778V41.4165H31.7316Z" fill="#2FC3C5"/>
</svg>
