<svg width="114" height="122" viewBox="0 0 114 122" fill="none" xmlns="http://www.w3.org/2000/svg">
<rect x="13.8662" y="56.1367" width="87.8175" height="65.8632" rx="10" fill="#FE67AD" fill-opacity="0.1"/>
<path d="M57.8877 80.8662C60.3282 80.8662 62.3066 78.8877 62.3066 76.4472C62.3066 74.0067 60.3282 72.0283 57.8877 72.0283C55.4472 72.0283 53.4688 74.0067 53.4688 76.4472C53.4688 78.8877 55.4472 80.8662 57.8877 80.8662Z" fill="#FE67AD"/>
<path d="M62.3067 104.286H17.6757C12.8025 104.286 8.83783 100.322 8.83783 95.4486V59.2135C8.83783 54.3403 12.8025 50.3756 17.6757 50.3756H81.3081C86.1812 50.3756 90.1459 54.3403 90.1459 59.2135V68.9351C90.1459 71.3757 92.1242 73.354 94.5648 73.354C97.0054 73.354 98.9837 71.3757 98.9837 68.9351V59.2135C98.9837 49.4671 91.0544 41.5378 81.3081 41.5378H75.9972V25.9536C75.9972 11.6427 64.1032 0 49.4837 0C34.8641 0 22.9702 11.6427 22.9702 25.9536V41.5378H17.6757C7.9293 41.5378 0 49.4671 0 59.2135V95.4486C0 105.195 7.9293 113.124 17.6757 113.124H62.3067C64.7473 113.124 66.7256 111.146 66.7256 108.705C66.7256 106.265 64.7473 104.286 62.3067 104.286ZM31.808 25.9536C31.808 16.5159 39.7373 8.83783 49.4837 8.83783C59.23 8.83783 67.1593 16.5159 67.1593 25.9536V41.5378H31.808V25.9536Z" fill="#FE67AD"/>
<path d="M41.3169 80.8662C43.7574 80.8662 45.7358 78.8877 45.7358 76.4472C45.7358 74.0067 43.7574 72.0283 41.3169 72.0283C38.8764 72.0283 36.8979 74.0067 36.8979 76.4472C36.8979 78.8877 38.8764 80.8662 41.3169 80.8662Z" fill="#FE67AD"/>
<path d="M111.83 105.58L100.593 94.3432L111.83 83.1063C113.556 81.3807 113.556 78.5827 111.83 76.8569C110.104 75.131 107.307 75.131 105.581 76.8569L94.3439 88.0937L83.1071 76.8571C81.3815 75.1313 78.5836 75.1315 76.8578 76.8571C75.132 78.5827 75.132 81.3807 76.8578 83.1065L88.0945 94.3432L76.8578 105.58C75.132 107.306 75.132 110.104 76.8578 111.829C77.7206 112.692 78.8514 113.124 79.9824 113.124C81.1135 113.124 82.2443 112.692 83.1071 111.829L94.3439 100.593L105.581 111.829C106.444 112.692 107.574 113.124 108.705 113.124C109.836 113.124 110.967 112.692 111.83 111.829C113.556 110.104 113.556 107.306 111.83 105.58Z" fill="#FE67AD"/>
<path d="M24.7461 80.8662C27.1866 80.8662 29.165 78.8877 29.165 76.4472C29.165 74.0067 27.1866 72.0283 24.7461 72.0283C22.3056 72.0283 20.3271 74.0067 20.3271 76.4472C20.3271 78.8877 22.3056 80.8662 24.7461 80.8662Z" fill="#FE67AD"/>
</svg>
