<svg width="106" height="106" viewBox="0 0 106 106" fill="none" xmlns="http://www.w3.org/2000/svg">
<path d="M53.1308 105.007C46.0483 105.007 39.1654 103.61 32.698 100.883C26.4468 98.239 20.8274 94.4478 16.006 89.6256C11.1846 84.8035 7.39402 79.1832 4.75057 72.931C2.02398 66.4626 0.627441 59.5952 0.627441 52.5116C0.627441 45.4281 2.02398 38.544 4.75057 32.0757C7.39402 25.8235 11.1846 20.2032 16.006 15.381C20.8274 10.5589 26.4468 6.76765 32.698 4.12378C39.1654 1.39676 46.0483 0 53.1308 0C60.2132 0 67.0962 1.39676 73.5635 4.12378C79.8147 6.76765 85.4341 10.5589 90.2555 15.381C95.0769 20.2032 98.8675 25.8235 101.511 32.0757C104.254 38.544 105.634 45.4281 105.634 52.5116C105.634 59.5952 104.238 66.4793 101.511 72.9476C98.8675 79.1998 95.0769 84.8201 90.2555 89.6423C85.4341 94.4644 79.8147 98.2556 73.5635 100.9C67.0796 103.627 60.2132 105.007 53.1308 105.007Z" fill="url(#paint0_linear)"/>
<path d="M53.1303 99.2882C78.9593 99.2882 99.8979 78.3463 99.8979 52.5132C99.8979 26.6801 78.9593 5.73828 53.1303 5.73828C27.3013 5.73828 6.36279 26.6801 6.36279 52.5132C6.36279 78.3463 27.3013 99.2882 53.1303 99.2882Z" fill="white"/>
<path d="M80.6131 32.9887C79.8151 32.9554 78.8674 33.2381 77.8034 33.9864C77.288 34.3189 76.7726 34.7512 76.3071 35.2667C75.9081 35.6658 75.4925 36.1314 75.0602 36.6469L53.7463 59.9096L61.9261 47.7877C63.439 45.5429 63.7216 42.6662 62.6742 40.172L56.3399 25.1568C55.7912 23.8598 54.7106 22.9286 53.4471 22.5462C53.1644 22.4631 52.8818 22.3965 52.5992 22.3799H52.5825C52.5326 22.3799 52.4661 22.3633 52.4163 22.3633C52.3996 22.3633 52.383 22.3633 52.3664 22.3633C52.3165 22.3633 52.2833 22.3633 52.2334 22.3633C52.2001 22.3633 52.1669 22.3633 52.1336 22.3633C52.1004 22.3633 52.0671 22.3633 52.0339 22.3633C51.984 22.3633 51.9508 22.3633 51.9009 22.3633C51.8843 22.3633 51.8676 22.3633 51.851 22.3633C51.8011 22.3633 51.7346 22.3633 51.6847 22.3799H51.6681C51.3855 22.4132 51.1029 22.4631 50.8202 22.5462C49.5567 22.9286 48.476 23.8432 47.9274 25.1568L41.5931 40.1886C40.5457 42.6829 40.8117 45.5429 42.3412 47.8043L50.521 59.9096L29.0242 36.4141C28.7249 36.0482 28.4423 35.7157 28.1597 35.4164C28.143 35.3997 28.143 35.3831 28.1264 35.3665C27.5113 34.4852 26.6966 33.8367 25.7656 33.421C24.9011 32.9221 24.1363 32.7226 23.4713 32.7559C22.0249 32.8058 20.6948 33.3711 19.664 34.2524C18.9824 34.8344 18.467 35.566 18.1179 36.3642C18.1179 36.3642 18.1179 36.3642 18.1179 36.3808C18.1012 36.4307 18.068 36.4972 18.0514 36.5471V36.5637C17.9184 36.8963 17.8186 37.2455 17.7521 37.6113C17.6856 37.9438 17.6523 38.293 17.6523 38.6589C17.6523 38.6755 17.6523 38.6755 17.6523 38.6921C17.6523 38.8916 17.669 39.0579 17.7022 39.191C17.7188 39.3074 17.7355 39.4237 17.7687 39.5235L25.8653 78.8657C26.015 80.4952 27.0458 81.9918 28.6418 82.6735C30.9527 83.638 33.6461 82.5405 34.6104 80.2126L37.9521 72.2976C38.9995 69.8034 38.7335 66.9433 37.2039 64.6819L29.3068 52.9757C29.3068 52.9757 47.9773 73.7775 48.343 74.0768C50.2383 75.6731 53.0148 75.9558 55.1761 74.559C55.5086 74.3428 55.8079 74.11 56.0739 73.844C56.5061 73.4948 75.2098 52.9757 75.2098 52.9757L67.1797 64.8814C65.6668 67.1262 65.3842 70.0029 66.4316 72.4971L69.5405 79.8634C70.5048 82.1747 73.1982 83.2888 75.5091 82.3077C76.9888 81.6925 77.9863 80.3622 78.2357 78.8657C78.2357 78.8324 78.2523 78.7992 78.2523 78.7659L86.2824 40.1388C86.2824 40.1055 86.299 40.0722 86.299 40.0556L86.3157 40.0057C86.3822 39.7231 86.4154 39.4404 86.4154 39.1577C86.4154 39.0746 86.4321 38.9914 86.4321 38.8916C86.4321 35.6492 83.8218 33.1051 80.6131 32.9887Z" fill="url(#paint1_linear)"/>
<defs>
<linearGradient id="paint0_linear" x1="58.6052" y1="6.50875" x2="39.2355" y2="169.072" gradientUnits="userSpaceOnUse">
<stop stop-color="#3AD1BF"/>
<stop offset="1" stop-color="#119BD2"/>
</linearGradient>
<linearGradient id="paint1_linear" x1="55.9196" y1="6.1871" x2="36.5497" y2="168.751" gradientUnits="userSpaceOnUse">
<stop stop-color="#3AD1BF"/>
<stop offset="1" stop-color="#119BD2"/>
</linearGradient>
</defs>
</svg>
